<svg preserveAspectRatio="none" width="100%" height="100%" overflow="visible" style="display: block;" viewBox="0 0 47 47" fill="none" xmlns="http://www.w3.org/2000/svg">
<g id="humbleicons:certificate">
<path id="Vector" d="M17.625 33.2917V41.125L23.5 37.2083L29.375 41.125V33.2917M27.3325 8.37187L26.6999 7.50237C26.3324 6.99823 25.8511 6.58804 25.295 6.30524C24.7389 6.02244 24.1239 5.87504 23.5 5.87504C22.8761 5.87504 22.2611 6.02244 21.705 6.30524C21.1489 6.58804 20.6676 6.99823 20.3001 7.50237L19.6675 8.37187L18.6042 8.20542C17.988 8.10824 17.3575 8.15818 16.7643 8.35115C16.1711 8.54412 15.6319 8.87466 15.1908 9.31577C14.7497 9.75687 14.4191 10.2961 14.2262 10.8893C14.0332 11.4825 13.9832 12.113 14.0804 12.7292L14.2469 13.7925L13.3774 14.4251C12.8725 14.792 12.4616 15.2733 12.1783 15.8294C11.895 16.3856 11.7473 17.0008 11.7473 17.625C11.7473 18.2491 11.895 18.8644 12.1783 19.4206C12.4616 19.9767 12.8725 20.458 13.3774 20.8249L14.2469 21.4575L14.0804 22.5189C13.9829 23.1352 14.0326 23.7659 14.2254 24.3594C14.4182 24.9529 14.7487 25.4923 15.1898 25.9337C15.631 26.375 16.1703 26.7057 16.7637 26.8988C17.3571 27.0919 17.9878 27.1418 18.6042 27.0446L19.6675 26.8781L20.3001 27.7476C20.6676 28.2518 21.1489 28.662 21.705 28.9448C22.2611 29.2276 22.8761 29.375 23.5 29.375C24.1239 29.375 24.7389 29.2276 25.295 28.9448C25.8511 28.662 26.3324 28.2518 26.6999 27.7476L27.3325 26.8781L28.3939 27.0446C29.0102 27.1421 29.6409 27.0924 30.2344 26.8996C30.8279 26.7068 31.3673 26.3763 31.8087 25.9352C32.25 25.494 32.5807 24.9547 32.7738 24.3613C32.9669 23.7679 33.0168 23.1372 32.9196 22.5208L32.7531 21.4575L33.6226 20.8249C34.1268 20.4574 34.537 19.9761 34.8198 19.42C35.1026 18.8639 35.25 18.2489 35.25 17.625C35.25 17.0011 35.1026 16.3861 34.8198 15.83C34.537 15.2739 34.1268 14.7926 33.6226 14.4251L32.7531 13.7925L32.9196 12.7311C33.0171 12.1148 32.9674 11.4841 32.7746 10.8906C32.5818 10.2971 32.2513 9.75767 31.8102 9.31632C31.369 8.87497 30.8297 8.54426 30.2363 8.35118C29.6429 8.15811 29.0122 8.10816 28.3958 8.20542L27.3325 8.37187Z" stroke="var(--stroke-0, #213026)" stroke-width="3" stroke-linecap="round" stroke-linejoin="round"/>
</g>
</svg>
