<svg width="678" height="778" viewBox="0 0 678 778" fill="none" xmlns="http://www.w3.org/2000/svg">
<path fill-rule="evenodd" clip-rule="evenodd" d="M484.286 290.571C537.779 290.571 581.143 247.207 581.143 193.714C581.143 140.221 537.779 96.8569 484.286 96.8569C430.794 96.8569 387.429 140.221 387.429 193.714C387.429 247.207 430.794 290.571 484.286 290.571ZM484.286 387.428C591.271 387.428 678 300.699 678 193.714C678 86.7287 591.271 0 484.286 0C377.301 0 290.572 86.7287 290.572 193.714C290.572 300.699 377.301 387.428 484.286 387.428Z" fill="#FFB800"/>
<path fill-rule="evenodd" clip-rule="evenodd" d="M290.571 618.138V537.08C290.571 482.05 259.479 431.743 210.259 407.133L96.8569 350.432V431.489C96.8569 486.52 127.948 536.826 177.169 561.437L290.571 618.138ZM387.428 774.856V537.08C387.428 445.363 335.609 361.518 253.575 320.501L0 193.714V431.489C0 523.206 51.819 607.051 133.853 648.068L387.428 774.856Z" fill="#2DBA5D"/>
<path fill-rule="evenodd" clip-rule="evenodd" d="M0 796.886C0 842.745 25.9095 884.667 66.9265 905.176L193.714 968.569V849.682C193.714 803.823 167.804 761.901 126.787 741.392L0 677.999V796.886Z" fill="#FFB800"/>
<path fill-rule="evenodd" clip-rule="evenodd" d="M387.429 811.852V730.794C387.429 675.764 418.521 625.457 467.741 600.847L581.143 544.146V625.203C581.143 680.234 550.052 730.54 500.831 755.151L387.429 811.852ZM290.572 968.57V730.794C290.572 639.077 342.391 555.232 424.425 514.215L678 387.428V625.203C678 716.92 626.181 800.765 544.147 841.782L290.572 968.57Z" fill="#2DBA5D"/>
</svg>
