<svg preserveAspectRatio="none" width="100%" height="100%" overflow="visible" style="display: block;" viewBox="0 0 70 26.9997" fill="none" xmlns="http://www.w3.org/2000/svg">
<g id="text">
<g id="vector">
<path d="M22.5604 17.1646C23.708 17.5908 24.9621 17.8039 26.3228 17.8039C27.5524 17.8039 28.7819 17.6154 30.0115 17.2383C31.2574 16.8613 32.3476 16.3203 33.2821 15.6153V8.63146H29.6426V13.6878C29.3753 13.8284 29.1048 13.9463 28.8311 14.0415C28.0934 14.2874 27.331 14.4104 26.5441 14.4104C25.7244 14.4104 24.9703 14.2792 24.2817 14.0169C23.6096 13.7546 23.0194 13.3775 22.5112 12.8857C22.0194 12.3775 21.6341 11.7873 21.3554 11.1152C21.0931 10.443 20.962 9.70528 20.962 8.90197C20.962 8.08226 21.0931 7.33634 21.3554 6.66418C21.6341 5.99202 22.0194 5.41004 22.5112 4.91821C23.0194 4.42638 23.6178 4.04932 24.3063 3.78702C24.9949 3.52471 25.7572 3.39356 26.5933 3.39356C27.4622 3.39356 28.2655 3.55751 29.0032 3.88539C29.741 4.19687 30.4213 4.6805 31.0443 5.33626L33.6018 2.97552C32.7657 2.00828 31.7328 1.27054 30.5033 0.762325C29.2901 0.254114 27.9212 0 26.3966 0C25.0195 0 23.7571 0.221315 22.6096 0.663959C21.462 1.0902 20.4619 1.70498 19.6094 2.50829C18.757 3.3116 18.093 4.25425 17.6176 5.33626C17.1585 6.41826 16.929 7.60683 16.929 8.90197C16.929 10.1971 17.1585 11.3857 17.6176 12.4677C18.093 13.5497 18.7488 14.4923 19.5849 15.2956C20.4374 16.099 21.4292 16.7219 22.5604 17.1646Z" fill="var(--fill-0, #213026)"/>
<path fill-rule="evenodd" clip-rule="evenodd" d="M0 0.295097V17.5088H3.98376V12.7628H7.45108C8.99213 12.7628 10.3201 12.5168 11.4348 12.025C12.5496 11.5168 13.4103 10.7955 14.0169 9.86101C14.6235 8.92655 14.9268 7.81996 14.9268 6.54123C14.9268 5.24609 14.6235 4.1313 14.0169 3.19683C13.4103 2.26238 12.5496 1.54923 11.4348 1.05742C10.3201 0.549194 8.99213 0.295097 7.45108 0.295097H0ZM3.98376 9.51674H7.22977C8.45932 9.51674 9.3774 9.25443 9.98397 8.72982C10.5905 8.20521 10.8938 7.47568 10.8938 6.54123C10.8938 5.59037 10.5905 4.85263 9.98397 4.32802C9.3774 3.80342 8.45932 3.54111 7.22977 3.54111H3.98376V9.51674Z" fill="var(--fill-0, #213026)"/>
<path fill-rule="evenodd" clip-rule="evenodd" d="M36.9827 0.295097H44.4338C45.9748 0.295097 47.3027 0.549194 48.4175 1.05742C49.5323 1.54923 50.393 2.26238 50.9996 3.19683C51.6061 4.1313 51.9094 5.24609 51.9094 6.54123C51.9094 7.81996 51.6061 8.92655 50.9996 9.86101C50.393 10.7955 49.5323 11.5168 48.4175 12.025C47.3027 12.5168 45.9748 12.7628 44.4338 12.7628H40.9664V17.5088H36.9827V0.295097ZM44.2124 9.51674H40.9664V3.54111H44.2124C45.442 3.54111 46.36 3.80342 46.9666 4.32802C47.5732 4.85263 47.8765 5.59037 47.8765 6.54123C47.8765 7.47568 47.5732 8.20521 46.9666 8.72982C46.36 9.25443 45.442 9.51674 44.2124 9.51674Z" fill="var(--fill-0, #213026)"/>
<path fill-rule="evenodd" clip-rule="evenodd" d="M62.2046 0.295097H54.7535V17.5088H58.7373V12.7136H62.2046C62.2674 12.7136 62.3298 12.7132 62.3919 12.7124L65.6966 17.5088H70L66.1546 11.9906C66.1659 11.9857 66.1772 11.9808 66.1884 11.9759C67.3032 11.484 68.1639 10.7791 68.7704 9.86101C69.377 8.92655 69.6803 7.81996 69.6803 6.54123C69.6803 5.24609 69.377 4.1313 68.7704 3.19683C68.1639 2.26238 67.3032 1.54923 66.1884 1.05742C65.0736 0.549194 63.7457 0.295097 62.2046 0.295097ZM58.7373 9.54133H61.9833C63.2129 9.54133 64.1309 9.27903 64.7375 8.75442C65.3441 8.21341 65.6474 7.47568 65.6474 6.54123C65.6474 5.59037 65.3441 4.85263 64.7375 4.32802C64.1309 3.80342 63.2129 3.54111 61.9833 3.54111H58.7373V9.54133Z" fill="var(--fill-0, #213026)"/>
</g>
<g id="vector_2">
<path d="M14.3744 26.9997C13.9187 26.9997 13.4938 26.9266 13.0999 26.7803C12.7117 26.6284 12.3741 26.4145 12.0871 26.1388C11.8001 25.8631 11.575 25.5396 11.4119 25.1682C11.2543 24.7968 11.1755 24.3889 11.1755 23.9443C11.1755 23.4998 11.2543 23.0919 11.4119 22.7205C11.575 22.3491 11.8001 22.0256 12.0871 21.7498C12.3797 21.4741 12.7201 21.2631 13.1084 21.1168C13.4966 20.9649 13.9215 20.8889 14.3829 20.8889C14.8949 20.8889 15.3563 20.979 15.7671 21.159C16.1835 21.3335 16.5324 21.5923 16.8137 21.9355L15.9359 22.7458C15.7333 22.5151 15.5082 22.3435 15.2607 22.2309C15.0131 22.1128 14.743 22.0537 14.4504 22.0537C14.1747 22.0537 13.9215 22.0987 13.6908 22.1887C13.4601 22.2788 13.2603 22.4082 13.0915 22.577C12.9227 22.7458 12.7905 22.9456 12.6948 23.1763C12.6048 23.407 12.5598 23.663 12.5598 23.9443C12.5598 24.2257 12.6048 24.4817 12.6948 24.7124C12.7905 24.9431 12.9227 25.1429 13.0915 25.3117C13.2603 25.4805 13.4601 25.6099 13.6908 25.6999C13.9215 25.79 14.1747 25.835 14.4504 25.835C14.743 25.835 15.0131 25.7787 15.2607 25.6662C15.5082 25.548 15.7333 25.3708 15.9359 25.1344L16.8137 25.9447C16.5324 26.2879 16.1835 26.5496 15.7671 26.7297C15.3563 26.9097 14.8921 26.9997 14.3744 26.9997Z" fill="var(--fill-0, #213026)"/>
<path d="M1.89064 22.1044V26.8985H3.25797V22.1044H5.14861V20.9902H0V22.1044H1.89064Z" fill="var(--fill-0, #213026)"/>
<path d="M7.2432 24.4339V25.8012H10.459V26.8985H5.8843V20.9902H10.3492V22.0875H7.2432V23.3704H9.98631V24.4339H7.2432Z" fill="var(--fill-0, #213026)"/>
<path d="M23.1558 20.9902H21.7884V23.3197H19.1044V20.9902H17.7371V26.8985H19.1044V24.4761H21.7884V26.8985H23.1558V20.9902Z" fill="var(--fill-0, #213026)"/>
<path d="M24.5536 20.9902H25.6846L28.6219 24.5746V20.9902H29.9723V26.8985H28.8498L25.9041 23.3124V26.8985H24.5536V20.9902Z" fill="var(--fill-0, #213026)"/>
<path fill-rule="evenodd" clip-rule="evenodd" d="M32.9401 26.7719C33.3396 26.9238 33.7729 26.9997 34.2399 26.9997C34.7013 26.9997 35.1261 26.9238 35.5144 26.7719C35.9083 26.6199 36.2487 26.4089 36.5357 26.1388C36.8283 25.8631 37.0562 25.5396 37.2193 25.1682C37.3825 24.7912 37.4641 24.3832 37.4641 23.9443C37.4641 23.4998 37.3825 23.0947 37.2193 22.7289C37.0562 22.3576 36.8283 22.034 36.5357 21.7583C36.2487 21.4826 35.9083 21.2687 35.5144 21.1168C35.1261 20.9649 34.6985 20.8889 34.2315 20.8889C33.7701 20.8889 33.3424 20.9649 32.9485 21.1168C32.5547 21.2687 32.2114 21.4826 31.9188 21.7583C31.6262 22.034 31.3983 22.3576 31.2351 22.7289C31.0776 23.1003 30.9988 23.5054 30.9988 23.9443C30.9988 24.3832 31.0776 24.7884 31.2351 25.1597C31.3983 25.5311 31.6234 25.8547 31.9104 26.1304C32.203 26.4061 32.5462 26.6199 32.9401 26.7719ZM34.9573 25.6999C34.7379 25.79 34.4959 25.835 34.2315 25.835C33.967 25.835 33.7222 25.79 33.4972 25.6999C33.2721 25.6099 33.0751 25.4805 32.9063 25.3117C32.7432 25.1429 32.6137 24.9431 32.5181 24.7124C32.4281 24.4761 32.383 24.2201 32.383 23.9443C32.383 23.663 32.4281 23.407 32.5181 23.1763C32.6137 22.9456 32.746 22.7458 32.9148 22.577C33.0836 22.4082 33.2777 22.2788 33.4972 22.1887C33.7222 22.0987 33.967 22.0537 34.2315 22.0537C34.4959 22.0537 34.7407 22.0987 34.9658 22.1887C35.1909 22.2788 35.385 22.4082 35.5482 22.577C35.717 22.7458 35.8464 22.9456 35.9364 23.1763C36.0321 23.407 36.0799 23.663 36.0799 23.9443C36.0799 24.2257 36.0321 24.4817 35.9364 24.7124C35.8464 24.9431 35.717 25.1429 35.5482 25.3117C35.3794 25.4805 35.1824 25.6099 34.9573 25.6999Z" fill="var(--fill-0, #213026)"/>
<path d="M38.4917 20.9902H39.8591V25.7843H42.8216V26.8985H38.4917V20.9902Z" fill="var(--fill-0, #213026)"/>
<path fill-rule="evenodd" clip-rule="evenodd" d="M45.0566 26.7719C45.4561 26.9238 45.8894 26.9997 46.3564 26.9997C46.8178 26.9997 47.2427 26.9238 47.6309 26.7719C48.0248 26.6199 48.3652 26.4089 48.6522 26.1388C48.9448 25.8631 49.1727 25.5396 49.3359 25.1682C49.499 24.7912 49.5806 24.3832 49.5806 23.9443C49.5806 23.4998 49.499 23.0947 49.3359 22.7289C49.1727 22.3576 48.9448 22.034 48.6522 21.7583C48.3652 21.4826 48.0248 21.2687 47.6309 21.1168C47.2427 20.9649 46.815 20.8889 46.348 20.8889C45.8866 20.8889 45.4589 20.9649 45.065 21.1168C44.6712 21.2687 44.3279 21.4826 44.0353 21.7583C43.7427 22.034 43.5148 22.3576 43.3517 22.7289C43.1941 23.1003 43.1153 23.5054 43.1153 23.9443C43.1153 24.3832 43.1941 24.7884 43.3517 25.1597C43.5148 25.5311 43.7399 25.8547 44.0269 26.1304C44.3195 26.4061 44.6627 26.6199 45.0566 26.7719ZM47.0739 25.6999C46.8544 25.79 46.6125 25.835 46.348 25.835C46.0835 25.835 45.8388 25.79 45.6137 25.6999C45.3886 25.6099 45.1917 25.4805 45.0228 25.3117C44.8597 25.1429 44.7303 24.9431 44.6346 24.7124C44.5446 24.4761 44.4995 24.2201 44.4995 23.9443C44.4995 23.663 44.5446 23.407 44.6346 23.1763C44.7303 22.9456 44.8625 22.7458 45.0313 22.577C45.2001 22.4082 45.3942 22.2788 45.6137 22.1887C45.8388 22.0987 46.0835 22.0537 46.348 22.0537C46.6125 22.0537 46.8572 22.0987 47.0823 22.1887C47.3074 22.2788 47.5015 22.4082 47.6647 22.577C47.8335 22.7458 47.9629 22.9456 48.0529 23.1763C48.1486 23.407 48.1964 23.663 48.1964 23.9443C48.1964 24.2257 48.1486 24.4817 48.0529 24.7124C47.9629 24.9431 47.8335 25.1429 47.6647 25.3117C47.4959 25.4805 47.2989 25.6099 47.0739 25.6999Z" fill="var(--fill-0, #213026)"/>
<path d="M53.4611 26.9997C52.994 26.9997 52.5636 26.9266 52.1697 26.7803C51.7815 26.6284 51.441 26.4145 51.1484 26.1388C50.8615 25.8631 50.6364 25.5396 50.4732 25.1682C50.3156 24.7968 50.2369 24.3889 50.2369 23.9443C50.2369 23.4998 50.3156 23.0919 50.4732 22.7205C50.6364 22.3491 50.8643 22.0256 51.1569 21.7498C51.4495 21.4741 51.7927 21.2631 52.1866 21.1168C52.5805 20.9649 53.0137 20.8889 53.4864 20.8889C54.0097 20.8889 54.4796 20.9762 54.8959 21.1506C55.318 21.325 55.6725 21.5782 55.9594 21.9102L55.0816 22.7205C54.8678 22.4954 54.6343 22.3294 54.3811 22.2225C54.1279 22.11 53.8522 22.0537 53.5539 22.0537C53.2669 22.0537 53.0053 22.0987 52.769 22.1887C52.5326 22.2788 52.3273 22.4082 52.1528 22.577C51.984 22.7458 51.8518 22.9456 51.7561 23.1763C51.6661 23.407 51.6211 23.663 51.6211 23.9443C51.6211 24.2201 51.6661 24.4733 51.7561 24.704C51.8518 24.9347 51.984 25.1372 52.1528 25.3117C52.3273 25.4805 52.5298 25.6099 52.7605 25.6999C52.9969 25.79 53.2557 25.835 53.537 25.835C53.8071 25.835 54.0688 25.7928 54.322 25.7084C54.416 25.6757 54.5088 25.6352 54.6005 25.587V23.8515H55.8497V26.2486C55.529 26.4905 55.1548 26.6762 54.7271 26.8056C54.3051 26.935 53.8831 26.9997 53.4611 26.9997Z" fill="var(--fill-0, #213026)"/>
<path d="M58.4872 20.9902H57.1198V26.8985H58.4872V20.9902Z" fill="var(--fill-0, #213026)"/>
<path d="M61.2482 25.8012V24.4339H63.9913V23.3704H61.2482V22.0875H64.3543V20.9902H59.8893V26.8985H64.464V25.8012H61.2482Z" fill="var(--fill-0, #213026)"/>
<path d="M66.1343 26.8141C66.5676 26.9379 67.0206 26.9997 67.4932 26.9997C68.0559 26.9997 68.5201 26.9153 68.8859 26.7465C69.2572 26.5777 69.5358 26.3555 69.7215 26.0797C69.9072 25.804 70 25.5002 70 25.1682C70 24.8587 69.9353 24.6027 69.8059 24.4001C69.6821 24.1976 69.5189 24.0344 69.3163 23.9106C69.1138 23.7868 68.8887 23.6883 68.6411 23.6152C68.3991 23.542 68.1544 23.4773 67.9068 23.421C67.6648 23.3648 67.4426 23.3085 67.24 23.2522C67.0374 23.196 66.8743 23.1228 66.7505 23.0328C66.6267 22.9371 66.5648 22.8133 66.5648 22.6614C66.5648 22.532 66.6014 22.4194 66.6745 22.3238C66.7476 22.2225 66.8686 22.1409 67.0374 22.079C67.2062 22.0171 67.4229 21.9862 67.6873 21.9862C67.9518 21.9862 68.2219 22.0256 68.4976 22.1044C68.7733 22.1775 69.0491 22.2929 69.3248 22.4504L69.7468 21.4122C69.4711 21.2378 69.1531 21.1084 68.793 21.024C68.4329 20.934 68.0672 20.8889 67.6958 20.8889C67.1387 20.8889 66.6745 20.9733 66.3031 21.1421C65.9374 21.3053 65.6617 21.5276 65.476 21.8089C65.2959 22.0847 65.2059 22.3913 65.2059 22.7289C65.2059 23.044 65.2678 23.3029 65.3916 23.5054C65.521 23.708 65.687 23.8712 65.8896 23.995C66.0921 24.1188 66.3144 24.2201 66.5563 24.2988C66.8039 24.3776 67.0487 24.4451 67.2907 24.5014C67.5382 24.552 67.7633 24.6083 67.9659 24.6702C68.1684 24.7265 68.3316 24.8024 68.4554 24.8981C68.5792 24.9881 68.6411 25.1119 68.6411 25.2695C68.6411 25.3933 68.6017 25.503 68.5229 25.5986C68.4442 25.6943 68.3204 25.7703 68.1516 25.8265C67.9884 25.8772 67.7717 25.9025 67.5016 25.9025C67.1472 25.9025 66.7955 25.8462 66.4466 25.7337C66.1034 25.6155 65.8051 25.4664 65.5519 25.2864L65.0877 26.3161C65.3522 26.5186 65.7011 26.6846 66.1343 26.8141Z" fill="var(--fill-0, #213026)"/>
</g>
</g>
</svg>
