<svg preserveAspectRatio="none" width="100%" height="100%" overflow="visible" style="display: block;" viewBox="0 0 35 50" fill="none" xmlns="http://www.w3.org/2000/svg">
<g id="glypth">
<path id="vector" fill-rule="evenodd" clip-rule="evenodd" d="M25 15C27.7614 15 30 12.7614 30 10C30 7.23858 27.7614 5 25 5C22.2386 5 20 7.23858 20 10C20 12.7614 22.2386 15 25 15ZM25 20C30.5228 20 35 15.5228 35 10C35 4.47715 30.5228 0 25 0C19.4772 0 15 4.47715 15 10C15 15.5228 19.4772 20 25 20Z" fill="var(--fill-0, #FFB800)"/>
<path id="vector_2" fill-rule="evenodd" clip-rule="evenodd" d="M15 31.9098V27.7254C15 24.8846 13.395 22.2877 10.8541 21.0172L5 18.0902V22.2746C5 25.1154 6.60502 27.7123 9.1459 28.9828L15 31.9098ZM20 40V27.7254C20 22.9908 17.325 18.6625 13.0902 16.5451L0 10V22.2746C0 27.0092 2.67503 31.3375 6.90983 33.4549L20 40Z" fill="var(--fill-0, #2DBA5D)"/>
<path id="vector_3" fill-rule="evenodd" clip-rule="evenodd" d="M0 41.1373C0 43.5046 1.33751 45.6688 3.45491 46.7275L10 50V43.8627C10 41.4954 8.66249 39.3312 6.54509 38.2725L0 35V41.1373Z" fill="var(--fill-0, #FFB800)"/>
<path id="vector_4" fill-rule="evenodd" clip-rule="evenodd" d="M20 41.9098V37.7254C20 34.8846 21.605 32.2877 24.1459 31.0172L30 28.0902V32.2746C30 35.1154 28.395 37.7123 25.8541 38.9828L20 41.9098ZM15 50V37.7254C15 32.9908 17.675 28.6625 21.9098 26.5451L35 20V32.2746C35 37.0092 32.325 41.3375 28.0902 43.4549L15 50Z" fill="var(--fill-0, #2DBA5D)"/>
</g>
</svg>
