<svg preserveAspectRatio="none" width="100%" height="100%" overflow="visible" style="display: block;" viewBox="0 0 140 53.9995" fill="none" xmlns="http://www.w3.org/2000/svg">
<g id="text">
<g id="vector">
<path d="M45.1208 34.3291C47.4159 35.1816 49.9242 35.6079 52.6456 35.6079C55.1047 35.6079 57.5638 35.2308 60.0229 34.4767C62.5148 33.7225 64.6952 32.6405 66.5642 31.2307V17.2629H59.2852V27.3756C58.7507 27.6568 58.2097 27.8926 57.6622 28.083C56.1867 28.5748 54.6621 28.8207 53.0882 28.8207C51.4489 28.8207 49.9406 28.5584 48.5635 28.0338C47.2192 27.5092 46.0388 26.7551 45.0224 25.7714C44.0387 24.755 43.2682 23.5746 42.7108 22.2303C42.1862 20.886 41.9239 19.4106 41.9239 17.8039C41.9239 16.1645 42.1862 14.6727 42.7108 13.3284C43.2682 11.984 44.0387 10.8201 45.0224 9.83642C46.0388 8.85277 47.2356 8.09864 48.6127 7.57405C49.9898 7.04942 51.5144 6.78713 53.1866 6.78713C54.9244 6.78713 56.531 7.11502 58.0065 7.77078C59.4819 8.39374 60.8427 9.361 62.0886 10.6725L67.2035 5.95103C65.5313 4.01655 63.4657 2.54107 61.0066 1.52465C58.5803 0.508227 55.8424 0 52.7932 0C50.039 0 47.5143 0.442629 45.2191 1.32792C42.924 2.18041 40.9239 3.40996 39.2189 5.01658C37.5139 6.62319 36.186 8.50851 35.2351 10.6725C34.3171 12.8365 33.8581 15.2137 33.8581 17.8039C33.8581 20.3942 34.3171 22.7713 35.2351 24.9353C36.186 27.0993 37.4975 28.9846 39.1697 30.5913C40.8747 32.1979 42.8584 33.4438 45.1208 34.3291Z" fill="var(--fill-0, #F4FFF8)"/>
<path fill-rule="evenodd" clip-rule="evenodd" d="M0 0.590193V35.0177H7.96751V25.5255H14.9022C17.9843 25.5255 20.6401 25.0337 22.8697 24.0501C25.0993 23.0336 26.8206 21.591 28.0338 19.722C29.247 17.8531 29.8535 15.6399 29.8535 13.0825C29.8535 10.4922 29.247 8.26261 28.0338 6.39366C26.8206 4.52475 25.0993 3.09847 22.8697 2.11484C20.6401 1.09839 17.9843 0.590193 14.9022 0.590193H0ZM7.96751 19.0335H14.4595C16.9186 19.0335 18.7548 18.5089 19.9679 17.4596C21.1811 16.4104 21.7877 14.9514 21.7877 13.0825C21.7877 11.1807 21.1811 9.70526 19.9679 8.65604C18.7548 7.60685 16.9186 7.08222 14.4595 7.08222H7.96751V19.0335Z" fill="var(--fill-0, #F4FFF8)"/>
<path fill-rule="evenodd" clip-rule="evenodd" d="M73.9653 0.590193H88.8675C91.9496 0.590193 94.6054 1.09839 96.835 2.11484C99.0646 3.09847 100.786 4.52475 101.999 6.39366C103.212 8.26261 103.819 10.4922 103.819 13.0825C103.819 15.6399 103.212 17.8531 101.999 19.722C100.786 21.591 99.0646 23.0336 96.835 24.0501C94.6054 25.0337 91.9496 25.5255 88.8675 25.5255H81.9328V35.0177H73.9653V0.590193ZM88.4248 19.0335H81.9328V7.08222H88.4248C90.884 7.08222 92.7201 7.60685 93.9333 8.65604C95.1464 9.70526 95.753 11.1807 95.753 13.0825C95.753 14.9514 95.1464 16.4104 93.9333 17.4596C92.7201 18.5089 90.884 19.0335 88.4248 19.0335Z" fill="var(--fill-0, #F4FFF8)"/>
<path fill-rule="evenodd" clip-rule="evenodd" d="M124.409 0.590193H109.507V35.0177H117.475V25.4272H124.409C124.535 25.4272 124.66 25.4264 124.784 25.4247L131.393 35.0177H140L132.309 23.9813C132.332 23.9715 132.354 23.9616 132.377 23.9517C134.606 22.968 136.328 21.5582 137.541 19.722C138.754 17.8531 139.361 15.6399 139.361 13.0825C139.361 10.4922 138.754 8.26261 137.541 6.39366C136.328 4.52475 134.606 3.09847 132.377 2.11484C130.147 1.09839 127.491 0.590193 124.409 0.590193ZM117.475 19.0827H123.967C126.426 19.0827 128.262 18.5581 129.475 17.5088C130.688 16.4268 131.295 14.9514 131.295 13.0825C131.295 11.1807 130.688 9.70526 129.475 8.65604C128.262 7.60685 126.426 7.08222 123.967 7.08222H117.475V19.0827Z" fill="var(--fill-0, #F4FFF8)"/>
</g>
<g id="vector_2">
<path d="M28.7489 53.9995C27.8373 53.9995 26.9877 53.8532 26.1999 53.5606C25.4234 53.2567 24.7482 52.829 24.1742 52.2776C23.6002 51.7262 23.1501 51.0791 22.8237 50.3364C22.5087 49.5936 22.3511 48.7777 22.3511 47.8886C22.3511 46.9996 22.5087 46.1837 22.8237 45.4409C23.1501 44.6982 23.6002 44.0511 24.1742 43.4997C24.7594 42.9482 25.4402 42.5262 26.2168 42.2336C26.9933 41.9298 27.8429 41.7778 28.7657 41.7778C29.7899 41.7778 30.7127 41.9579 31.5342 42.318C32.367 42.6669 33.0647 43.1846 33.6274 43.871L31.8718 45.4916C31.4667 45.0302 31.0165 44.6869 30.5213 44.4618C30.0262 44.2255 29.486 44.1074 28.9008 44.1074C28.3494 44.1074 27.8429 44.1974 27.3815 44.3775C26.9201 44.5575 26.5206 44.8164 26.183 45.154C25.8454 45.4916 25.5809 45.8911 25.3896 46.3525C25.2096 46.8139 25.1195 47.3259 25.1195 47.8886C25.1195 48.4513 25.2096 48.9634 25.3896 49.4248C25.5809 49.8862 25.8454 50.2857 26.183 50.6233C26.5206 50.9609 26.9201 51.2198 27.3815 51.3998C27.8429 51.5799 28.3494 51.6699 28.9008 51.6699C29.486 51.6699 30.0262 51.5574 30.5213 51.3323C31.0165 51.096 31.4667 50.7415 31.8718 50.2688L33.6274 51.8894C33.0647 52.5759 32.367 53.0992 31.5342 53.4593C30.7127 53.8194 29.7842 53.9995 28.7489 53.9995Z" fill="var(--fill-0, #F4FFF8)"/>
<path d="M3.78128 44.2087V53.7969H6.51595V44.2087H10.2972V41.9804H0V44.2087H3.78128Z" fill="var(--fill-0, #F4FFF8)"/>
<path d="M14.4864 48.8677V51.6024H20.918V53.7969H11.7686V41.9804H20.6985V44.1749H14.4864V46.7407H19.9726V48.8677H14.4864Z" fill="var(--fill-0, #F4FFF8)"/>
<path d="M46.3115 41.9804H43.5768V46.6395H38.2088V41.9804H35.4741V53.7969H38.2088V48.9521H43.5768V53.7969H46.3115V41.9804Z" fill="var(--fill-0, #F4FFF8)"/>
<path d="M49.1073 41.9804H51.3693L57.2437 49.1492V41.9804H59.9446V53.7969H57.6995L51.8082 46.6248V53.7969H49.1073V41.9804Z" fill="var(--fill-0, #F4FFF8)"/>
<path fill-rule="evenodd" clip-rule="evenodd" d="M65.8802 53.5437C66.6792 53.8475 67.5457 53.9995 68.4798 53.9995C69.4026 53.9995 70.2523 53.8475 71.0288 53.5437C71.8166 53.2398 72.4974 52.8178 73.0714 52.2776C73.6566 51.7262 74.1124 51.0791 74.4387 50.3364C74.7651 49.5823 74.9282 48.7664 74.9282 47.8886C74.9282 46.9996 74.7651 46.1893 74.4387 45.4578C74.1124 44.7151 73.6566 44.068 73.0714 43.5165C72.4974 42.9651 71.8166 42.5375 71.0288 42.2336C70.2523 41.9298 69.397 41.7778 68.4629 41.7778C67.5401 41.7778 66.6848 41.9298 65.8971 42.2336C65.1093 42.5375 64.4228 42.9651 63.8376 43.5165C63.2524 44.068 62.7966 44.7151 62.4703 45.4578C62.1552 46.2006 61.9976 47.0109 61.9976 47.8886C61.9976 48.7664 62.1552 49.5767 62.4703 50.3195C62.7966 51.0622 63.2468 51.7093 63.8207 52.2607C64.4059 52.8122 65.0924 53.2398 65.8802 53.5437ZM69.9147 51.3998C69.4758 51.5799 68.9919 51.6699 68.4629 51.6699C67.934 51.6699 67.4445 51.5799 66.9943 51.3998C66.5442 51.2198 66.1503 50.9609 65.8127 50.6233C65.4863 50.2857 65.2275 49.8862 65.0362 49.4248C64.8561 48.9521 64.7661 48.4401 64.7661 47.8886C64.7661 47.3259 64.8561 46.8139 65.0362 46.3525C65.2275 45.8911 65.4919 45.4916 65.8296 45.154C66.1672 44.8164 66.5554 44.5575 66.9943 44.3775C67.4445 44.1974 67.934 44.1074 68.4629 44.1074C68.9919 44.1074 69.4814 44.1974 69.9316 44.3775C70.3817 44.5575 70.77 44.8164 71.0963 45.154C71.434 45.4916 71.6928 45.8911 71.8729 46.3525C72.0641 46.8139 72.1598 47.3259 72.1598 47.8886C72.1598 48.4513 72.0641 48.9634 71.8729 49.4248C71.6928 49.8862 71.434 50.2857 71.0963 50.6233C70.7587 50.9609 70.3648 51.2198 69.9147 51.3998Z" fill="var(--fill-0, #F4FFF8)"/>
<path d="M76.9835 41.9804H79.7181V51.5686H85.6433V53.7969H76.9835V41.9804Z" fill="var(--fill-0, #F4FFF8)"/>
<path fill-rule="evenodd" clip-rule="evenodd" d="M90.1132 53.5437C90.9122 53.8475 91.7788 53.9995 92.7129 53.9995C93.6357 53.9995 94.4853 53.8475 95.2618 53.5437C96.0496 53.2398 96.7304 52.8178 97.3044 52.2776C97.8896 51.7262 98.3454 51.0791 98.6717 50.3364C98.9981 49.5823 99.1613 48.7664 99.1613 47.8886C99.1613 46.9996 98.9981 46.1893 98.6717 45.4578C98.3454 44.7151 97.8896 44.068 97.3044 43.5165C96.7304 42.9651 96.0496 42.5375 95.2618 42.2336C94.4853 41.9298 93.63 41.7778 92.696 41.7778C91.7732 41.7778 90.9179 41.9298 90.1301 42.2336C89.3423 42.5375 88.6559 42.9651 88.0707 43.5165C87.4855 44.068 87.0297 44.7151 86.7033 45.4578C86.3882 46.2006 86.2307 47.0109 86.2307 47.8886C86.2307 48.7664 86.3882 49.5767 86.7033 50.3195C87.0297 51.0622 87.4798 51.7093 88.0538 52.2607C88.639 52.8122 89.3254 53.2398 90.1132 53.5437ZM94.1477 51.3998C93.7088 51.5799 93.2249 51.6699 92.696 51.6699C92.167 51.6699 91.6775 51.5799 91.2273 51.3998C90.7772 51.2198 90.3833 50.9609 90.0457 50.6233C89.7193 50.2857 89.4605 49.8862 89.2692 49.4248C89.0891 48.9521 88.9991 48.4401 88.9991 47.8886C88.9991 47.3259 89.0891 46.8139 89.2692 46.3525C89.4605 45.8911 89.7249 45.4916 90.0626 45.154C90.4002 44.8164 90.7885 44.5575 91.2273 44.3775C91.6775 44.1974 92.167 44.1074 92.696 44.1074C93.2249 44.1074 93.7144 44.1974 94.1646 44.3775C94.6147 44.5575 95.003 44.8164 95.3294 45.154C95.667 45.4916 95.9258 45.8911 96.1059 46.3525C96.2972 46.8139 96.3929 47.3259 96.3929 47.8886C96.3929 48.4513 96.2972 48.9634 96.1059 49.4248C95.9258 49.8862 95.667 50.2857 95.3294 50.6233C94.9918 50.9609 94.5979 51.2198 94.1477 51.3998Z" fill="var(--fill-0, #F4FFF8)"/>
<path d="M106.922 53.9995C105.988 53.9995 105.127 53.8532 104.339 53.5606C103.563 53.2567 102.882 52.829 102.297 52.2776C101.723 51.7262 101.273 51.0791 100.946 50.3364C100.631 49.5936 100.474 48.7777 100.474 47.8886C100.474 46.9996 100.631 46.1837 100.946 45.4409C101.273 44.6982 101.729 44.0511 102.314 43.4997C102.899 42.9482 103.585 42.5262 104.373 42.2336C105.161 41.9298 106.027 41.7778 106.973 41.7778C108.019 41.7778 108.959 41.9523 109.792 42.3011C110.636 42.65 111.345 43.1564 111.919 43.8204L110.163 45.4409C109.736 44.9908 109.269 44.6588 108.762 44.445C108.256 44.2199 107.704 44.1074 107.108 44.1074C106.534 44.1074 106.011 44.1974 105.538 44.3775C105.065 44.5575 104.655 44.8164 104.306 45.154C103.968 45.4916 103.704 45.8911 103.512 46.3525C103.332 46.8139 103.242 47.3259 103.242 47.8886C103.242 48.4401 103.332 48.9465 103.512 49.4079C103.704 49.8693 103.968 50.2745 104.306 50.6233C104.655 50.9609 105.06 51.2198 105.521 51.3998C105.994 51.5799 106.511 51.6699 107.074 51.6699C107.614 51.6699 108.138 51.5855 108.644 51.4167C108.832 51.3513 109.018 51.2704 109.201 51.1739V47.7029H111.699V52.4971C111.058 52.981 110.31 53.3524 109.454 53.6112C108.61 53.87 107.766 53.9995 106.922 53.9995Z" fill="var(--fill-0, #F4FFF8)"/>
<path d="M116.974 41.9804H114.24V53.7969H116.974V41.9804Z" fill="var(--fill-0, #F4FFF8)"/>
<path d="M122.496 51.6024V48.8677H127.983V46.7407H122.496V44.1749H128.709V41.9804H119.779V53.7969H128.928V51.6024H122.496Z" fill="var(--fill-0, #F4FFF8)"/>
<path d="M132.269 53.6281C133.135 53.8757 134.041 53.9995 134.986 53.9995C136.112 53.9995 137.04 53.8306 137.772 53.493C138.514 53.1554 139.072 52.7109 139.443 52.1595C139.814 51.608 140 51.0003 140 50.3364C140 49.7174 139.871 49.2053 139.612 48.8002C139.364 48.3951 139.038 48.0687 138.633 47.8211C138.228 47.5735 137.777 47.3766 137.282 47.2303C136.798 47.084 136.309 46.9546 135.814 46.842C135.33 46.7295 134.885 46.617 134.48 46.5044C134.075 46.3919 133.749 46.2456 133.501 46.0655C133.253 45.8742 133.13 45.6266 133.13 45.3228C133.13 45.0639 133.203 44.8389 133.349 44.6476C133.495 44.445 133.737 44.2818 134.075 44.158C134.412 44.0342 134.846 43.9723 135.375 43.9723C135.904 43.9723 136.444 44.0511 136.995 44.2087C137.547 44.355 138.098 44.5857 138.65 44.9007L139.494 42.8244C138.942 42.4756 138.306 42.2167 137.586 42.0479C136.866 41.8679 136.134 41.7778 135.392 41.7778C134.277 41.7778 133.349 41.9467 132.606 42.2842C131.875 42.6106 131.323 43.0551 130.952 43.6178C130.592 44.1693 130.412 44.7826 130.412 45.4578C130.412 46.088 130.536 46.6057 130.783 47.0109C131.042 47.416 131.374 47.7423 131.779 47.9899C132.184 48.2375 132.629 48.4401 133.113 48.5976C133.608 48.7552 134.097 48.8902 134.581 49.0028C135.076 49.104 135.527 49.2166 135.932 49.3404C136.337 49.4529 136.663 49.6048 136.911 49.7962C137.158 49.9762 137.282 50.2238 137.282 50.5389C137.282 50.7865 137.203 51.0059 137.046 51.1973C136.888 51.3886 136.641 51.5405 136.303 51.653C135.977 51.7543 135.543 51.805 135.003 51.805C134.294 51.805 133.591 51.6924 132.893 51.4673C132.207 51.231 131.61 50.9328 131.104 50.5727L130.175 52.6321C130.704 53.0373 131.402 53.3692 132.269 53.6281Z" fill="var(--fill-0, #F4FFF8)"/>
</g>
</g>
</svg>
