<svg preserveAspectRatio="none" width="100%" height="100%" overflow="visible" style="display: block;" viewBox="0 0 70 100" fill="none" xmlns="http://www.w3.org/2000/svg">
<g id="glypth">
<path id="vector" fill-rule="evenodd" clip-rule="evenodd" d="M50 30C55.5228 30 60 25.5228 60 20C60 14.4772 55.5228 10 50 10C44.4772 10 40 14.4772 40 20C40 25.5228 44.4772 30 50 30ZM50 40C61.0457 40 70 31.0457 70 20C70 8.9543 61.0457 0 50 0C38.9543 0 30 8.9543 30 20C30 31.0457 38.9543 40 50 40Z" fill="var(--fill-0, #FFB800)"/>
<path id="vector_2" fill-rule="evenodd" clip-rule="evenodd" d="M30 63.8197V55.4509C30 49.7693 26.79 44.5753 21.7082 42.0344L10 36.1803V44.5491C10 50.2307 13.21 55.4247 18.2918 57.9656L30 63.8197ZM40 80V55.4509C40 45.9816 34.6499 37.325 26.1803 33.0902L0 20V44.5491C0 54.0185 5.35006 62.675 13.8197 66.9098L40 80Z" fill="var(--fill-0, #2DBA5D)"/>
<path id="vector_3" fill-rule="evenodd" clip-rule="evenodd" d="M0 82.2746C0 87.0092 2.67503 91.3375 6.90983 93.4549L20 100V87.7254C20 82.9908 17.325 78.6625 13.0902 76.5451L0 70V82.2746Z" fill="var(--fill-0, #FFB800)"/>
<path id="vector_4" fill-rule="evenodd" clip-rule="evenodd" d="M40 83.8197V75.4509C40 69.7693 43.21 64.5753 48.2918 62.0344L60 56.1803V64.5491C60 70.2307 56.79 75.4247 51.7082 77.9656L40 83.8197ZM30 100V75.4509C30 65.9816 35.3501 57.325 43.8197 53.0902L70 40V64.5491C70 74.0185 64.6499 82.675 56.1803 86.9098L30 100Z" fill="var(--fill-0, #2DBA5D)"/>
</g>
</svg>
