<svg width="112" height="24" viewBox="0 0 112 24" fill="none" xmlns="http://www.w3.org/2000/svg">
<g id="Frame 44">
<path id="Vector" d="M12 0C5.373 0 0 5.373 0 12C0 18.016 4.432 22.984 10.206 23.852V15.18H7.237V12.026H10.206V9.927C10.206 6.452 11.899 4.927 14.787 4.927C16.17 4.927 16.902 5.03 17.248 5.076V7.829H15.278C14.052 7.829 13.624 8.992 13.624 10.302V12.026H17.217L16.73 15.18H13.624V23.877C19.481 23.083 24 18.075 24 12C24 5.373 18.627 0 12 0Z" fill="var(--fill-0, #ECE9F1)"/>
<path id="Vector_2" d="M50.998 0C47.139 0 44 3.14195 44 7.00195V17.002C44 20.861 47.142 24 51.002 24H61.002C64.861 24 68 20.858 68 16.998V6.99805C68 3.13905 64.858 0 60.998 0H50.998ZM63 4C63.552 4 64 4.448 64 5C64 5.552 63.552 6 63 6C62.448 6 62 5.552 62 5C62 4.448 62.448 4 63 4ZM56 6C59.309 6 62 8.691 62 12C62 15.309 59.309 18 56 18C52.691 18 50 15.309 50 12C50 8.691 52.691 6 56 6ZM56 8C54.9391 8 53.9217 8.42143 53.1716 9.17157C52.4214 9.92172 52 10.9391 52 12C52 13.0609 52.4214 14.0783 53.1716 14.8284C53.9217 15.5786 54.9391 16 56 16C57.0609 16 58.0783 15.5786 58.8284 14.8284C59.5786 14.0783 60 13.0609 60 12C60 10.9391 59.5786 9.92172 58.8284 9.17157C58.0783 8.42143 57.0609 8 56 8V8Z" fill="var(--fill-0, #ECE9F1)"/>
<path id="Vector_3" d="M100 0C93.373 0 88 5.373 88 12C88 18.627 93.373 24 100 24C106.627 24 112 18.627 112 12C112 5.373 106.627 0 100 0ZM95.496 5.403C96.338 5.403 96.899 5.964 96.899 6.712C96.899 7.46 96.338 8.021 95.403 8.021C94.561 8.022 94 7.46 94 6.712C94 5.964 94.561 5.403 95.496 5.403ZM97 17H94V9H97V17ZM107 17H104.176V12.628C104.176 11.419 103.423 11.14 103.141 11.14C102.859 11.14 101.917 11.326 101.917 12.628C101.917 12.814 101.917 17 101.917 17H99V9H101.918V10.116C102.294 9.465 103.047 9 104.459 9C105.871 9 107 10.116 107 12.628V17Z" fill="var(--fill-0, #ECE9F1)"/>
</g>
</svg>
