<svg preserveAspectRatio="none" width="100%" height="100%" overflow="visible" style="display: block;" viewBox="0 0 35 31" fill="none" xmlns="http://www.w3.org/2000/svg">
<g id="Group">
<path id="Vector" fill-rule="evenodd" clip-rule="evenodd" d="M14 0C15.1667 0 16.3333 0.436296 17.5 1.30889C18.6667 0.436296 19.8333 0 21 0H31.5C32.4283 0 33.3185 0.362896 33.9749 1.00885C34.6312 1.65481 35 2.53092 35 3.44444V25.8333C35 26.7469 34.6312 27.623 33.9749 28.2689C33.3185 28.9149 32.4283 29.2778 31.5 29.2778H19.25C19.25 30.2284 18.4625 31 17.5 31C16.5375 31 15.75 30.225 15.75 29.2778H3.5C2.57174 29.2778 1.6815 28.9149 1.02513 28.2689C0.368749 27.623 0 26.7469 0 25.8333V3.44444C0 2.53092 0.368749 1.65481 1.02513 1.00885C1.6815 0.362896 2.57174 0 3.5 0H14ZM14 3.44444H3.5V25.8333H15.75V5.16667C15.75 4.21944 14.9625 3.44444 14 3.44444ZM31.5 3.44444H21C20.0375 3.44444 19.25 4.21944 19.25 5.16667V25.8333H31.5V3.44444Z" fill="var(--fill-0, #213026)"/>
</g>
</svg>
