<svg preserveAspectRatio="none" width="100%" height="100%" overflow="visible" style="display: block;" viewBox="0 0 36.5213 36.5002" fill="none" xmlns="http://www.w3.org/2000/svg">
<g id="Group">
<path id="Vector" d="M16.5713 18.2502H16.5883M19.9713 35.2502C20.8213 34.4002 21.8753 33.5502 24.2213 33.5502M24.2213 33.5502C21.8753 33.5502 20.8213 32.7002 19.9713 31.8502M24.2213 33.5502C27.1519 33.5502 29.9625 32.386 32.0348 30.3137C34.1071 28.2415 35.2713 25.4309 35.2713 22.5002C35.2713 19.5696 34.1071 16.759 32.0348 14.6867C29.9625 12.6144 27.1519 11.4502 24.2213 11.4502H5.32923C4.77907 11.4531 4.23407 11.3441 3.72736 11.1298C3.22064 10.9156 2.76279 10.6005 2.38163 10.2037C2.00048 9.80699 1.70398 9.33689 1.51016 8.822C1.31634 8.30711 1.22924 7.75818 1.25417 7.20858C1.27909 6.65898 1.41551 6.12019 1.65514 5.62495C1.89477 5.12972 2.23261 4.68838 2.64811 4.32777C3.06361 3.96716 3.5481 3.69481 4.07213 3.52727C4.59616 3.35972 5.14879 3.30049 5.69643 3.35317L16.1854 4.30687C17.301 4.40735 18.4211 4.1695 19.3996 3.6243C20.3781 3.0791 21.1697 2.25183 21.6713 1.25027M24.2213 33.5502C25.3485 33.5502 26.4295 33.1024 27.2265 32.3054C28.0235 31.5084 28.4713 30.4274 28.4713 29.3002C28.4713 28.173 28.0235 27.092 27.2265 26.295C26.4295 25.498 25.3485 25.0502 24.2213 25.0502H18.2713C15.1152 25.0502 12.0884 23.7965 9.85675 21.5648C7.62507 19.3331 6.37133 16.3063 6.37133 13.1502V11.4502" stroke="var(--stroke-0, #213026)" stroke-width="2.5" stroke-linecap="round" stroke-linejoin="round"/>
<path id="Vector_2" d="M21.672 11.4504C22.7882 13.5432 23.372 15.8785 23.372 18.2503C23.372 20.6222 22.7882 22.9575 21.672 25.0503M25.072 25.0503C28.472 25.0503 32.722 18.2503 31.872 14.8504" stroke="var(--stroke-0, #213026)" stroke-width="2.5" stroke-linecap="round" stroke-linejoin="round"/>
</g>
</svg>
