<svg preserveAspectRatio="none" width="100%" height="100%" overflow="visible" style="display: block;" viewBox="0 0 78 78" fill="none" xmlns="http://www.w3.org/2000/svg">
<g id="Frame 3">
<rect x="1" y="1" width="76" height="76" rx="38" fill="var(--fill-0, #FFB800)"/>
<rect x="1" y="1" width="76" height="76" rx="38" stroke="var(--stroke-0, #FFB800)" stroke-width="2"/>
<path id="Vector" fill-rule="evenodd" clip-rule="evenodd" d="M29.1371 47.3123C26.8996 44.8217 26.2882 41.671 26.5604 38.8563C26.8603 35.7513 28.2593 32.773 30.0805 31.2359C32.5146 29.1831 35.0709 28.3402 37.2895 27.9275C38.37 27.7408 39.458 27.6016 40.5504 27.5105C41.1386 27.4545 41.734 27.3985 42.3061 27.2541C43.5115 26.949 44.7009 26.4539 45.6806 25.6669C46.129 25.3059 46.5832 24.9404 47.1873 25.0082C47.4045 25.0326 47.6135 25.1063 47.7987 25.2236C47.9839 25.341 48.1407 25.499 48.2573 25.6861C52.9158 33.1532 52.2127 41.0801 48.3214 46.0729C46.3779 48.5649 43.6483 50.3038 40.4646 50.8181C37.6869 51.2647 34.6516 50.7651 31.593 49.144C31.3243 49.9896 31.1247 50.8561 30.9962 51.7348C30.9415 52.1217 30.7373 52.4708 30.4284 52.7053C30.1195 52.9398 29.7312 53.0405 29.349 52.9852C28.9667 52.9299 28.6219 52.7231 28.3902 52.4104C28.1586 52.0977 28.0591 51.7046 28.1137 51.3177C28.2943 50.043 28.6378 48.6857 29.1371 47.3123ZM37.8136 30.8262C38.8385 30.6361 39.8007 30.5448 40.7353 30.4519C41.4982 30.3783 42.2668 30.3016 43.0122 30.113C44.2674 29.8017 45.4696 29.302 46.5788 28.6305C49.7495 34.6976 48.8644 40.6173 46.0358 44.2485C44.5102 46.2055 42.4124 47.52 40.0089 47.9061C37.85 48.2539 35.3504 47.8708 32.6863 46.3942C34.3052 43.0533 36.9518 39.851 40.3976 38.1077C40.7431 37.933 41.006 37.6265 41.1283 37.2556C41.2506 36.8847 41.2224 36.4798 41.0498 36.13C40.8772 35.7802 40.5744 35.5141 40.208 35.3903C39.8416 35.2665 39.4417 35.2951 39.0961 35.4698C35.2995 37.3915 32.3908 40.7146 30.4998 44.2588C29.5666 42.7114 29.2871 40.9121 29.4589 39.1422C29.7049 36.5957 30.8564 34.4191 31.9439 33.4995C33.8772 31.8681 35.9153 31.1799 37.815 30.8262H37.8136Z" fill="var(--fill-0, #213026)"/>
</g>
</svg>
